<svg width="109" height="31" viewBox="0 0 109 31" fill="none" xmlns="http://www.w3.org/2000/svg">
<path d="M4.79688 23.6094H0.265625V6.70312H4.79688V23.6094ZM0 2.32812C0 1.65104 0.223958 1.09375 0.671875 0.65625C1.13021 0.21875 1.75 0 2.53125 0C3.30208 0 3.91667 0.21875 4.375 0.65625C4.83333 1.09375 5.0625 1.65104 5.0625 2.32812C5.0625 3.01562 4.82812 3.57812 4.35938 4.01562C3.90104 4.45312 3.29167 4.67188 2.53125 4.67188C1.77083 4.67188 1.15625 4.45312 0.6875 4.01562C0.229167 3.57812 0 3.01562 0 2.32812Z" fill="#EBA417"/>
<path d="M7.875 15.0312C7.875 12.4375 8.48958 10.349 9.71875 8.76562C10.9583 7.18229 12.625 6.39062 14.7188 6.39062C16.5729 6.39062 18.0156 7.02604 19.0469 8.29688L19.2344 6.70312H23.3281V23.0469C23.3281 24.526 22.9896 25.8125 22.3125 26.9062C21.6458 28 20.7031 28.8333 19.4844 29.4062C18.2656 29.9792 16.8385 30.2656 15.2031 30.2656C13.9635 30.2656 12.7552 30.0156 11.5781 29.5156C10.401 29.026 9.51042 28.3906 8.90625 27.6094L10.9062 24.8594C12.0312 26.1198 13.3958 26.75 15 26.75C16.1979 26.75 17.1302 26.4271 17.7969 25.7812C18.4635 25.1458 18.7969 24.2396 18.7969 23.0625V22.1562C17.7552 23.3333 16.3854 23.9219 14.6875 23.9219C12.6562 23.9219 11.0104 23.1302 9.75 21.5469C8.5 19.9531 7.875 17.8438 7.875 15.2188V15.0312ZM12.3906 15.3594C12.3906 16.8906 12.6979 18.0938 13.3125 18.9688C13.9271 19.8333 14.7708 20.2656 15.8438 20.2656C17.2188 20.2656 18.2031 19.75 18.7969 18.7188V11.6094C18.1927 10.5781 17.2188 10.0625 15.875 10.0625C14.7917 10.0625 13.9375 10.5052 13.3125 11.3906C12.6979 12.276 12.3906 13.599 12.3906 15.3594Z" fill="#EBA417"/>
<path d="M27.0469 21.3906C27.0469 20.6719 27.2865 20.0885 27.7656 19.6406C28.2552 19.1927 28.8646 18.9688 29.5938 18.9688C30.3333 18.9688 30.9427 19.1927 31.4219 19.6406C31.9115 20.0885 32.1562 20.6719 32.1562 21.3906C32.1562 22.099 31.9167 22.6771 31.4375 23.125C30.9583 23.5625 30.3438 23.7812 29.5938 23.7812C28.8542 23.7812 28.2448 23.5625 27.7656 23.125C27.2865 22.6771 27.0469 22.099 27.0469 21.3906Z" fill="#EBA417"/>
<path d="M40.2812 6.70312L40.4219 8.65625C41.6302 7.14583 43.25 6.39062 45.2812 6.39062C47.0729 6.39062 48.4062 6.91667 49.2812 7.96875C50.1562 9.02083 50.6042 10.5938 50.625 12.6875V23.6094H46.1094V12.7969C46.1094 11.8385 45.901 11.1458 45.4844 10.7188C45.0677 10.2812 44.375 10.0625 43.4062 10.0625C42.1354 10.0625 41.1823 10.6042 40.5469 11.6875V23.6094H36.0312V6.70312H40.2812Z" fill="#EBA417"/>
<path d="M61.8438 23.9219C59.3646 23.9219 57.3438 23.1615 55.7812 21.6406C54.2292 20.1198 53.4531 18.0938 53.4531 15.5625V15.125C53.4531 13.4271 53.7812 11.9115 54.4375 10.5781C55.0938 9.23438 56.0208 8.20312 57.2188 7.48438C58.4271 6.75521 59.8021 6.39062 61.3438 6.39062C63.6562 6.39062 65.474 7.11979 66.7969 8.57812C68.1302 10.0365 68.7969 12.1042 68.7969 14.7812V16.625H58.0312C58.1771 17.7292 58.6146 18.6146 59.3438 19.2812C60.0833 19.9479 61.0156 20.2812 62.1406 20.2812C63.8802 20.2812 65.2396 19.651 66.2188 18.3906L68.4375 20.875C67.7604 21.8333 66.8438 22.5833 65.6875 23.125C64.5312 23.6562 63.25 23.9219 61.8438 23.9219ZM61.3281 10.0469C60.4323 10.0469 59.7031 10.349 59.1406 10.9531C58.5885 11.5573 58.2344 12.4219 58.0781 13.5469H64.3594V13.1875C64.3385 12.1875 64.0677 11.4167 63.5469 10.875C63.026 10.3229 62.2865 10.0469 61.3281 10.0469Z" fill="#EBA417"/>
<path d="M86.0781 17.4688L88.2969 6.70312H92.6562L88.3438 23.6094H84.5625L81.3594 12.9688L78.1562 23.6094H74.3906L70.0781 6.70312H74.4375L76.6406 17.4531L79.7344 6.70312H83L86.0781 17.4688Z" fill="#EBA417"/>
<path d="M104.062 18.9375C104.062 18.3854 103.786 17.9531 103.234 17.6406C102.693 17.3177 101.818 17.0312 100.609 16.7812C96.5885 15.9375 94.5781 14.2292 94.5781 11.6562C94.5781 10.1562 95.1979 8.90625 96.4375 7.90625C97.6875 6.89583 99.3177 6.39062 101.328 6.39062C103.474 6.39062 105.188 6.89583 106.469 7.90625C107.76 8.91667 108.406 10.2292 108.406 11.8438H103.891C103.891 11.1979 103.682 10.6667 103.266 10.25C102.849 9.82292 102.198 9.60938 101.312 9.60938C100.552 9.60938 99.9635 9.78125 99.5469 10.125C99.1302 10.4688 98.9219 10.9062 98.9219 11.4375C98.9219 11.9375 99.1562 12.3438 99.625 12.6562C100.104 12.9583 100.906 13.224 102.031 13.4531C103.156 13.6719 104.104 13.9219 104.875 14.2031C107.26 15.0781 108.453 16.5938 108.453 18.75C108.453 20.2917 107.792 21.5417 106.469 22.5C105.146 23.4479 103.438 23.9219 101.344 23.9219C99.9271 23.9219 98.6667 23.6719 97.5625 23.1719C96.4688 22.6615 95.6094 21.9688 94.9844 21.0938C94.3594 20.2083 94.0469 19.2552 94.0469 18.2344H98.3281C98.3698 19.0365 98.6667 19.651 99.2188 20.0781C99.7708 20.5052 100.51 20.7188 101.438 20.7188C102.302 20.7188 102.953 20.5573 103.391 20.2344C103.839 19.901 104.062 19.4688 104.062 18.9375Z" fill="#EBA417"/>
</svg>
